<mxfile host="app.diagrams.net" agent="Mozilla/5.0 (Macintosh; Intel Mac OS X 10_15_7) AppleWebKit/537.36 (KHTML, like Gecko) Chrome/131.0.0.0 Safari/537.36" version="24.7.17">
  <diagram name="第 1 页" id="C-SD1MNEM1xRtSlaLv7w">
    <mxGraphModel dx="984" dy="625" grid="1" gridSize="10" guides="1" tooltips="1" connect="1" arrows="1" fold="1" page="1" pageScale="1" pageWidth="827" pageHeight="1169" math="0" shadow="0">
      <root>
        <mxCell id="0" />
        <mxCell id="1" parent="0" />
        <mxCell id="HxnqDczAizVpyk0NV9gP-21" style="edgeStyle=orthogonalEdgeStyle;rounded=0;orthogonalLoop=1;jettySize=auto;html=1;entryX=0.5;entryY=0;entryDx=0;entryDy=0;" edge="1" parent="1" source="HxnqDczAizVpyk0NV9gP-2" target="HxnqDczAizVpyk0NV9gP-3">
          <mxGeometry relative="1" as="geometry" />
        </mxCell>
        <mxCell id="HxnqDczAizVpyk0NV9gP-2" value="Actor" style="shape=umlActor;verticalLabelPosition=bottom;verticalAlign=top;html=1;outlineConnect=0;" vertex="1" parent="1">
          <mxGeometry x="280" y="10" width="30" height="60" as="geometry" />
        </mxCell>
        <mxCell id="HxnqDczAizVpyk0NV9gP-6" style="edgeStyle=orthogonalEdgeStyle;rounded=0;orthogonalLoop=1;jettySize=auto;html=1;" edge="1" parent="1" source="HxnqDczAizVpyk0NV9gP-3" target="HxnqDczAizVpyk0NV9gP-4">
          <mxGeometry relative="1" as="geometry" />
        </mxCell>
        <mxCell id="HxnqDczAizVpyk0NV9gP-3" value="輸入數字" style="rounded=0;whiteSpace=wrap;html=1;" vertex="1" parent="1">
          <mxGeometry x="235" y="150" width="120" height="60" as="geometry" />
        </mxCell>
        <mxCell id="HxnqDczAizVpyk0NV9gP-10" value="" style="edgeStyle=orthogonalEdgeStyle;rounded=0;orthogonalLoop=1;jettySize=auto;html=1;" edge="1" parent="1" source="HxnqDczAizVpyk0NV9gP-4" target="HxnqDczAizVpyk0NV9gP-9">
          <mxGeometry relative="1" as="geometry" />
        </mxCell>
        <mxCell id="HxnqDczAizVpyk0NV9gP-4" value="壘包上還未佔滿&lt;div&gt;(1, 2, 3)&lt;/div&gt;" style="rhombus;whiteSpace=wrap;html=1;" vertex="1" parent="1">
          <mxGeometry x="233.75" y="250" width="122.5" height="90" as="geometry" />
        </mxCell>
        <mxCell id="HxnqDczAizVpyk0NV9gP-5" value="" style="endArrow=classic;html=1;rounded=0;entryX=1;entryY=0.5;entryDx=0;entryDy=0;exitX=1;exitY=0.5;exitDx=0;exitDy=0;" edge="1" parent="1" source="HxnqDczAizVpyk0NV9gP-4" target="HxnqDczAizVpyk0NV9gP-3">
          <mxGeometry width="50" height="50" relative="1" as="geometry">
            <mxPoint x="370" y="310" as="sourcePoint" />
            <mxPoint x="420" y="260" as="targetPoint" />
            <Array as="points">
              <mxPoint x="420" y="230" />
            </Array>
          </mxGeometry>
        </mxCell>
        <mxCell id="HxnqDczAizVpyk0NV9gP-7" value="繼續輸入" style="text;html=1;align=center;verticalAlign=middle;resizable=0;points=[];autosize=1;strokeColor=none;fillColor=none;" vertex="1" parent="1">
          <mxGeometry x="420" y="210" width="70" height="30" as="geometry" />
        </mxCell>
        <mxCell id="HxnqDczAizVpyk0NV9gP-9" value="" style="whiteSpace=wrap;html=1;" vertex="1" parent="1">
          <mxGeometry x="235" y="410" width="120" height="60" as="geometry" />
        </mxCell>
        <mxCell id="HxnqDczAizVpyk0NV9gP-11" value="壘包滿人 或 輸入 4" style="text;html=1;align=center;verticalAlign=middle;resizable=0;points=[];autosize=1;strokeColor=none;fillColor=none;" vertex="1" parent="1">
          <mxGeometry x="300" y="350" width="120" height="30" as="geometry" />
        </mxCell>
      </root>
    </mxGraphModel>
  </diagram>
</mxfile>
